<svg version="1" xmlns="http://www.w3.org/2000/svg" width="346.667" height="346.667" viewBox="0 0 260.000000 260.000000"><path d="M180 35.9c-12.8 4-22.7 15.2-29.7 33.6-2.9 7.4-7 20.5-7.8 24.4-.2.9-.8 3.4-1.4 5.6-.5 2.2-1.3 5.3-1.5 7-.3 1.6-.8 4.1-1.1 5.5-.3 1.4-.8 4.1-1.1 6-.4 1.9-1.7 7.5-3 12.4-1.3 5-2.1 9.2-1.8 9.5.6.6 8.8 3.2 8.9 2.8 0-.1 3.4-6.9 7.5-15.2 6.4-12.9 8.3-15.8 14.2-21.6 3.7-3.7 8.8-7.7 11.5-9 14.3-6.9 36.5-.7 51.8 14.5 10.8 10.6 15.2 19.3 18.1 35.6 2.7 15.7 1.8 27.1-3.6 44.8-1.1 3.4-2.4 7.1-3 8.2-2.1 4 .6 1.8 3.9-3.1 6-8.8 12.1-21.9 13.5-29.1.3-1.3 1.2-5.9 2.2-10.3 1.8-8.3 2.5-29.4 1.2-37-2.3-13.3-5.5-23.1-11.7-35.3-2.5-5-10.4-16.5-13.5-19.8-15.5-16.4-24.5-23.6-34.9-28-5-2.2-14.3-2.9-18.7-1.5z"/><path d="M78.1 83.1C65.2 85.6 50.7 93 38 103.5c-13.3 11.1-21.5 21.6-29.9 38.3-16.9 33.5-6.4 57.4 31.7 72.3 30.7 12 54.6 13.7 70.6 5.1 13.8-7.5 24.4-26.2 27.1-48.2.9-6.5 1.3-9.2 1.7-9.6.3-.2 12.9 3.5 13.6 4.1.1.1.4 6.9.6 15.1.6 20.6 3.2 28.1 11.3 31.9 7.2 3.4 12.8 3.8 8.9.6-6.7-5.6-10.5-37.7-6.3-53.1 7.6-28 23.6-49.8 36.9-50.4 4-.1 3.5-1.1-1.8-3.6-4.8-2.3-11.2-2.8-15.5-1.1-10.2 3.9-23.2 21.4-28 37.6-.7 2.5-1.9 4.5-2.6 4.5-.8 0-4.1-.9-7.4-2-3.4-1.2-6.3-1.9-6.6-1.7-.8.9-3.3 11.2-3.3 13.8 0 1.4-.3 2.8-.6 3.1-.3.4-3.4-.2-6.9-1.1l-6.4-1.8-1.7 3.6c-2.6 5.5-9.9 16.3-13.1 19.2-11.1 10.4-27 11.6-37.6 2.8-9.6-7.9-15.1-29.8-12.5-49.2 1.7-13.2 8.7-29.2 16.3-37.6C80.7 91.6 90 85.9 94.8 85l3.7-.7-2.8-1.1c-3.2-1.4-11.1-1.4-17.6-.1zM65 96c0 .5-1.3 2.8-2.9 5.2-4.2 6.4-8.8 18.5-10.6 28.3-.5 2.9-.7 16.6-.2 21.5.2 2.1-.2 2.5-2.3 2.2-4.8-.5-5.5-2.4-5.5-14-.1-13 1.2-19 6.3-29.6 4-8.1 7.5-13 10.1-13.8 2.6-.8 5.1-.7 5.1.2zm-23.7 20.6c.3.3-.1 2.3-.8 4.5-.8 2.2-1.4 4.2-1.4 4.4 0 .3-.2 1.9-.6 3.6-1 4.6-3.4 2-2.9-3.2.6-6.2 3.7-11.3 5.7-9.3z"/><path d="M201.9 123.4c-10.8 3.8-18.5 14.1-24.4 32.6-2.4 7.4-2.8 10.2-2.8 21.5-.1 20.3 4 30.4 14.4 35 4.4 2 6 1.4 3.7-1.2-3.2-3.7-5-11.6-5.6-24.4-.7-19.7 2.2-32 11.1-46.5 3.3-5.3 5.5-7.6 9.6-10.1 3-1.8 5.8-3 6.2-2.7.5.3.9-.1.9-.9 0-1.4-2.8-2.9-7.5-4.1-1.1-.3-3.6.1-5.6.8zM92.9 132.1c-4.6 4.9-5.1 13.1-.9 17.9 2.2 2.5 8.4 3.8 9.5 2 .5-.9.2-1-1.2-.6-6.1 1.9-10.6-7.5-7.4-15.3 1.8-4.1 5.5-6 10.1-5 3.2.7 3.3.6 1.6-.7-3.4-2.5-8.5-1.8-11.7 1.7z"/><path d="M216 141.6c-5.3 3-7.2 5.3-11.5 13.9-5.7 11.5-8 26-6 37.5 1 6.2 3 9.7 6.8 12 4.9 3 6.2 2.5 3.3-1.3-8.3-10.9-2.7-44.6 9.5-56.8 3.5-3.5 5.5-4.5 8.2-4 2 .3-.5-1.8-3.2-2.7-2.3-.8-3.6-.6-7.1 1.4z"/><path d="M219.8 161.6c-5.3 2.8-8.6 15-5.9 21.7 1.4 3.5 5.1 5.3 7.7 3.8 1.7-.9 1.7-1 .2-1.1-2.6 0-3.6-2.9-3.3-8.6.3-5.7 3-12.3 5.3-13.2 3.5-1.3 5.4 7.1 3.3 14.6-.6 1.8-.6 3-.1 2.7.4-.2 1.1-2.2 1.5-4.2 2.2-10.6-2.4-19-8.7-15.7z"/></svg>