<?xml version="1.0" encoding="UTF-8" standalone="no"?>
<svg width="454px" height="331px" viewBox="0 0 454 331" version="1.1" xmlns="http://www.w3.org/2000/svg" xmlns:xlink="http://www.w3.org/1999/xlink">
    <!-- Generator: Sketch 45.2 (43514) - http://www.bohemiancoding.com/sketch -->
    <title>logo outlined</title>
    <desc>Created with Sketch.</desc>
    <defs></defs>
    <g id="Symbols" stroke="none" stroke-width="1" fill="none" fill-rule="evenodd">
        <g id="logo---white" transform="translate(0.000000, -1.000000)" fill="#FFFFFF">
            <g id="logo-outlined">
                <path d="M173.856934,86.9707031 C166.168717,87.7420087 160.812109,88.9072105 157.787109,90.4663086 C146.20166,96.4375 137.396874,102.521137 129.646973,112.747559 C119.213103,126.515625 109.028809,147.923828 105.704102,172 C100.311981,211.047539 111.664063,237.944336 120.62793,251.957031 C125.190678,259.089712 138.887013,267.807225 153.795898,269.574219 C168.28125,271.291016 188.515415,260.168497 197.098633,249.513672 C205.571289,238.996094 212.671224,227.19401 218.398438,214.107422 L242.736328,220.492676 C240.583362,241.969326 237.291695,258.902106 232.861328,271.291016 C219.064453,309.87207 194.296039,328.231948 161.661133,331.506836 C133.792888,334.303393 101.190427,325.138952 69.2402344,312.929688 C-0.125,286.422852 -10.1923828,241.99707 10.3535156,196.090332 C22.2511176,169.506919 37.8683398,146.360715 58.4208984,127.246094 C72.9878252,113.698326 89.2045176,102.913943 104.017578,95.7597656 C122.419629,86.8722342 142.666782,81.6753693 160.571777,82.9389648 C164.078782,83.186462 168.507168,84.5303748 173.856934,86.9707031 Z M92.6357422,121.021484 C87.0400391,130.981934 81.2207031,141.351563 78.909668,153.379883 C76.0180122,168.430178 76.1252242,183.451754 76.4165039,192.554688 C76.6044751,198.429075 76.956543,201.972656 80.0942383,205.266602 C82.1860352,207.462565 85.7080078,208.064779 90.6601563,207.073242 C89.3995549,197.758551 88.8274521,190.467373 88.9438477,185.199707 C89.1433157,176.172467 90.0034612,166.347915 92.6357422,155.728516 C97.5720456,135.814009 105.19021,119.538292 115.490234,106.901367 C110.734375,105.705729 106.684896,105.963867 103.341797,107.675781 C99.1042255,109.845731 95.7941978,115.399378 92.6357422,121.021484 Z M73.6831055,142.838867 C69.3732096,140.986979 66.027181,144.496257 63.6450195,153.366699 C61.2628581,162.237142 62.2457682,167.926432 66.59375,170.43457 C68.2223307,163.951172 69.4654948,158.761393 70.3232422,154.865234 C71.1809896,150.969076 72.300944,146.960286 73.6831055,142.838867 Z" id="Combined-Shape"></path>
                <path d="M186.741455,170.367432 C184.410513,167.914378 182.487987,166.312734 180.973877,165.5625 C176.740136,163.464702 171.526749,163.814914 167.628174,165.838623 C164.309057,167.561541 161.807931,170.096791 159.949951,172.760498 C157.773706,175.88049 156.486404,179.320896 155.899414,184.003906 C154.811279,192.685059 158.348141,201.193424 164.723633,204.569336 C167.813232,206.205322 171.139596,206.923849 175.161621,206.205322 C176.529134,205.961019 178.318685,205.188965 180.530273,203.88916 L178.391113,203.118164 C176.184704,204.107486 174.52764,204.59121 173.419922,204.569336 C170.33707,204.50846 167.316677,202.769218 165.416504,200.70459 C162.661923,197.711607 160.026953,190.855568 160.464111,184.679932 C160.898354,178.545481 164.158211,173.701305 167.043213,171.032471 C169.24585,168.994873 172.296631,167.287354 176.213135,167.478027 C178.824137,167.605143 180.756999,168.110758 182.011719,168.994873 L186.741455,170.367432 Z" id="Path-11"></path>
                <path d="M230.334961,184.041992 C236.671549,161.525391 240.676432,144.768555 242.349609,133.771484 C245.616857,112.297279 258.791016,60.7294922 274.681641,35.1416016 C287.110112,15.1286471 302.050862,4.74286007 317.330078,1.99804688 C341.825195,-2.40234375 356.499498,8.1881962 374.198242,21.0976563 C385.237793,29.1499023 395.909668,40.9663086 406.34375,52.4838867 C411.661574,58.3539239 421.971665,70.6839814 430.59082,86.7314453 C438.883278,102.170651 446.029582,121.169681 449.306641,136.65625 C455.937012,167.989746 454.994141,191.9375 446.912109,226.84375 C444.10325,238.975201 441.593262,247.080078 435.031738,261.571777 C430.657389,271.23291 423.297201,282.437988 412.951172,295.187012 C425.814693,262.94483 431.313716,236.480149 429.448242,215.792969 C428.043566,200.215809 425.112929,184.255574 420.725586,172 C415.301306,156.847855 407.848185,146.456676 400.660156,138.69043 C371.735182,107.438684 334.768066,100.040039 315.706055,104.825684 C304.919678,107.533675 295.49707,113.687988 289.054688,120.106445 C282.612305,126.524902 276.762207,131.613281 270.01709,143.371582 C263.271973,155.129883 261.903809,157.828125 257.824219,165.995117 C255.104492,171.439779 251.852539,179.205078 248.068359,189.291016 L230.334961,184.041992 Z" id="Path-12"></path>
                <path d="M247.940918,188.905273 L274.550781,196.806641 C278.503906,184.124349 282.275716,174.225911 285.866211,167.111328 C291.251953,156.439453 294.30264,152.66935 298.916992,146.045898 C305.91714,135.997871 315.635694,126.701891 325.522461,123 C340.625326,117.345052 353.329102,120.491211 363.633789,132.438477 C355.989645,128.634572 345.874085,131.847626 333.287109,142.077637 C326.705566,147.426758 314.863281,163.460449 308.258789,176.471191 C301.871208,189.054622 295.206791,206.523122 292.109375,219.038086 C288.552758,233.408429 288.817383,245.133789 288.817383,255.135742 C288.817383,265.137695 291.554559,285.246946 294.634766,294.102539 C299.348307,307.653971 304.359375,315.123698 309.667969,316.511719 C294.252279,314.777018 283.682292,310.233398 277.958008,302.880859 C269.371582,291.852051 268.838867,278.631348 267.793457,263.435547 C267.096517,253.305013 267.26888,241.637044 268.310547,228.431641 L242.194824,220.557617 C242.741374,213.255208 243.412435,207.588542 244.208008,203.557617 C245.003581,199.526693 246.247884,194.642578 247.940918,188.905273 Z" id="Path-13"></path>
                <path d="M377.782227,161.140625 C371.291992,155.822266 365.394206,153.163086 360.088867,153.163086 C352.130859,153.163086 340.59668,158.54126 329.80957,171.038086 C319.022461,183.534912 315.221924,195.45752 310.042969,210.907715 C304.864014,226.35791 304.063477,242.700357 304.063477,249.513672 C304.063477,254.030717 304.419599,264.675103 306.516113,275.551758 C308.311028,284.863721 311.972846,295.407136 315.776367,299.788086 C323.293945,308.44694 331.676107,312.776367 340.922852,312.776367 C333.082682,306.871419 328.45931,294.463216 327.052734,275.551758 C324.942871,247.18457 327.027832,233.262695 330.86377,218.510254 C334.699707,203.757813 343.68752,187.499385 350.276367,178.041016 C356.427083,169.211589 365.595703,163.578125 377.782227,161.140625 Z" id="Path-14"></path>
                <path d="M396.609375,188.739746 C393.866536,185.53304 391.09847,183.713379 388.305176,183.280762 C384.115234,182.631836 379.218262,183.902832 372.757813,188.739746 C366.297363,193.57666 361.265381,200.581055 356.935547,209.630859 C352.605713,218.680664 348.90332,228.694336 346.423828,243.351562 C343.944336,258.008789 345.579834,272.332275 346.423828,276.988281 C347.830586,284.748846 350.634766,290.396973 352.769531,292.918213 C354.904297,295.439453 359.288086,299.186279 363.299316,300.080078 C365.97347,300.675944 368.515462,300.675944 370.925293,300.080078 C367.150879,298.379232 364.490072,296.236165 362.942871,293.650879 C360.62207,289.772949 359.680176,288.041992 358.927246,283.562012 C356.858182,271.250946 356.799561,263.990234 358.118164,252.115723 C358.897378,245.098613 360.068143,239.507536 361.482666,234.427246 C362.461831,230.910554 363.299316,227.753418 364.594238,224.18457 C365.996626,220.319543 368.230664,214.380353 370.925293,209.150146 C373.695383,203.773471 377.015564,199.211083 378.990234,197.13501 C382.313477,193.641113 384.192627,191.806885 388.305176,189.661621 C391.046875,188.231445 393.814941,187.924154 396.609375,188.739746 Z" id="Path-15"></path>
                <path d="M389.438477,219.749756 C392.960138,219.983103 397.594238,223.854492 399.281982,231.544678 C401.788191,242.964185 398.665142,249.722877 398.412842,250.677734 C397.493026,254.158873 395.997832,256.859976 394.720459,259.150146 C393.448399,261.430791 391.037763,264.067755 388.216797,265.94458 C385.800758,267.552002 382.866786,267.804999 380.58252,267.182861 C376.075673,265.955387 372.636891,260.2156 371.657715,253.310059 C370.625366,246.02952 372.435589,237.93662 373.661621,234.425293 C376.050537,227.583496 381.826172,219.245361 389.438477,219.749756 Z M393.088867,225.675049 C388.948486,224.934326 385.197401,231.003187 382.696289,239.743896 C381.13623,245.195879 381.13623,248.270508 381.13623,253.384277 C381.13623,260.302097 383.450437,264.212953 385.99292,264.821289 C389.652961,265.697021 393.088867,260.111328 395.304199,254.85083 C396.808717,251.278222 398.174805,243.528076 398.169678,240.018311 C398.163813,236.003293 398.097656,233.107666 397.022705,230.212158 C395.947754,227.31665 394.69866,225.963044 393.088867,225.675049 Z" id="Combined-Shape"></path>
            </g>
        </g>
    </g>
</svg>